# xmcd
#
# Track frame offsets:
# 150
# 16258
# 24844
# 40307
# 56230
# 73763
# 93143
# 118686
# 149593
# 159903
#
# Disc length: 2314 seconds
#
#
# Revision: 0
# Processed by: cddbd v1.5.1PL0 Copyright (c) Steve Scherf et al.
# Submitted via: FreeRIP 2.91 
#
DISCID=8009080a
DTITLE=B.B. King - Blues Masters -- B.B. King
DYEAR=2000
DGENRE=Blues
TTITLE0=The Other Night Blues
TTITLE1=A New Way of Drivin'
TTITLE2=Walkin' and Cryin'
TTITLE3=Long Nights
TTITLE4=That Evil Child
TTITLE5=Sweet Sixteen
TTITLE6=Guess Who
TTITLE7=Outside Help
TTITLE8=I'm Willing to Run All the Way
TTITLE9=Save a Seat for Me
EXTD=
EXTT0=
EXTT1=
EXTT2=
EXTT3=
EXTT4=
EXTT5=
EXTT6=
EXTT7=
EXTT8=
EXTT9=
PLAYORDER=
